# xmcd
#
# Track frame offsets: 
#        200
#        19995
#        37272
#        54200
#        79692
#        102280
#        130617
#        151322
#        171025
#        185200
#        215215
#        233440
#        254830
#
# Disc length: 3609 seconds
#
# Revision: 2
# Processed by: cddbd v1.5.2PL0 Copyright (c) Steve Scherf et al.
# Submitted via: ExactAudioCopy v0.99pb4
#
DISCID=b20e170d
DTITLE=Bonnie Lee - Sweetheart Of The Blues
DYEAR=1995
DGENRE=Blues
TTITLE0=Baby, What You Want Me To Do
TTITLE1=Walking Blues
TTITLE2=I Love You Baby
TTITLE3=That's All Right
TTITLE4=I Need Your Love So Bad
TTITLE5=Since I Fell For You
TTITLE6=If You Be My Baby
TTITLE7=Breakin' Up Somebody's Home
TTITLE8=Ocean Of Tears
TTITLE9=Got The Blues 'Bout My Baby
TTITLE10=Next Time You See Me
TTITLE11=Change Your Mind
TTITLE12=Give Me All Your Lovin'
EXTD=
EXTT0=
EXTT1=
EXTT2=
EXTT3=
EXTT4=
EXTT5=
EXTT6=
EXTT7=
EXTT8=
EXTT9=
EXTT10=
EXTT11=
EXTT12=
PLAYORDER=
